0
SECTION
2
HEADER
9
$INSUNITS
70
4
9
$MEASUREMENT
70
1
0
ENDSEC
0
SECTION
2
TABLES
0
TABLE
2
LAYER
70
2
0
LAYER
2
CUT
70
0
62
7
6
CONTINUOUS
0
LAYER
2
BEND
70
0
62
1
6
CONTINUOUS
0
ENDTAB
0
ENDSEC
0
SECTION
2
ENTITIES
0
LINE
8
CUT
10
5.0000
20
0.0000
30
0.0
11
20.5000
21
0.0000
31
0.0
0
LINE
8
CUT
10
20.5000
20
0.0000
30
0.0
11
20.5000
21
5.0000
31
0.0
0
LINE
8
CUT
10
20.5000
20
5.0000
30
0.0
11
32.5000
21
5.0000
31
0.0
0
LINE
8
CUT
10
32.5000
20
5.0000
30
0.0
11
32.5000
21
0.0000
31
0.0
0
LINE
8
CUT
10
32.5000
20
0.0000
30
0.0
11
48.0000
21
0.0000
31
0.0
0
LINE
8
CUT
10
48.0000
20
0.0000
30
0.0
11
53.0000
21
5.0000
31
0.0
0
LINE
8
CUT
10
53.0000
20
5.0000
30
0.0
11
53.0000
21
48.0000
31
0.0
0
LINE
8
CUT
10
53.0000
20
48.0000
30
0.0
11
48.0000
21
53.0000
31
0.0
0
LINE
8
CUT
10
48.0000
20
53.0000
30
0.0
11
5.0000
21
53.0000
31
0.0
0
LINE
8
CUT
10
5.0000
20
53.0000
30
0.0
11
0.0000
21
48.0000
31
0.0
0
LINE
8
CUT
10
0.0000
20
48.0000
30
0.0
11
0.0000
21
5.0000
31
0.0
0
LINE
8
CUT
10
0.0000
20
5.0000
30
0.0
11
5.0000
21
0.0000
31
0.0
0
ENDSEC
0
EOF
