0
SECTION
2
HEADER
9
$INSUNITS
70
4
9
$MEASUREMENT
70
1
0
ENDSEC
0
SECTION
2
TABLES
0
TABLE
2
LAYER
70
2
0
LAYER
2
CUT
70
0
62
7
6
CONTINUOUS
0
LAYER
2
BEND
70
0
62
1
6
CONTINUOUS
0
ENDTAB
0
ENDSEC
0
SECTION
2
ENTITIES
0
LINE
8
CUT
10
0.0000
20
0.0000
30
0.0
11
60.0000
21
0.0000
31
0.0
0
LINE
8
CUT
10
60.0000
20
0.0000
30
0.0
11
60.0000
21
40.0000
31
0.0
0
LINE
8
CUT
10
60.0000
20
40.0000
30
0.0
11
0.0000
21
40.0000
31
0.0
0
LINE
8
CUT
10
0.0000
20
40.0000
30
0.0
11
0.0000
21
0.0000
31
0.0
0
ENDSEC
0
EOF
