0
SECTION
2
HEADER
9
$INSUNITS
70
4
9
$MEASUREMENT
70
1
0
ENDSEC
0
SECTION
2
TABLES
0
TABLE
2
LAYER
70
2
0
LAYER
2
CUT
70
0
62
7
6
CONTINUOUS
0
LAYER
2
BEND
70
0
62
1
6
CONTINUOUS
0
ENDTAB
0
ENDSEC
0
SECTION
2
ENTITIES
0
LINE
8
CUT
10
0.0000
20
0.0000
30
0.0
11
137.0000
21
22.0000
31
0.0
0
LINE
8
CUT
10
137.0000
20
22.0000
30
0.0
11
458.5000
21
22.0000
31
0.0
0
LINE
8
CUT
10
458.5000
20
22.0000
30
0.0
11
458.5000
21
128.0000
31
0.0
0
LINE
8
CUT
10
458.5000
20
128.0000
30
0.0
11
137.0000
21
128.0000
31
0.0
0
LINE
8
CUT
10
137.0000
20
128.0000
30
0.0
11
0.0000
21
150.0000
31
0.0
0
LINE
8
CUT
10
0.0000
20
150.0000
30
0.0
11
0.0000
21
0.0000
31
0.0
0
CIRCLE
8
CUT
10
65.0000
20
50.0000
30
0.0
40
6.0000
0
CIRCLE
8
CUT
10
65.0000
20
100.0000
30
0.0
40
6.0000
0
CIRCLE
8
CUT
10
135.0000
20
50.0000
30
0.0
40
6.0000
0
CIRCLE
8
CUT
10
135.0000
20
100.0000
30
0.0
40
6.0000
0
CIRCLE
8
CUT
10
205.0000
20
50.0000
30
0.0
40
6.0000
0
CIRCLE
8
CUT
10
205.0000
20
100.0000
30
0.0
40
6.0000
0
LINE
8
BEND
10
262.0000
20
22.0000
30
0.0
11
262.0000
21
128.0000
31
0.0
0
ENDSEC
0
EOF
