0
SECTION
2
HEADER
9
$INSUNITS
70
4
9
$MEASUREMENT
70
1
0
ENDSEC
0
SECTION
2
TABLES
0
TABLE
2
LAYER
70
2
0
LAYER
2
CUT
70
0
62
7
6
CONTINUOUS
0
LAYER
2
BEND
70
0
62
1
6
CONTINUOUS
0
ENDTAB
0
ENDSEC
0
SECTION
2
ENTITIES
0
LINE
8
CUT
10
0.0000
20
0.0000
30
0.0
11
40.0000
21
0.0000
31
0.0
0
LINE
8
CUT
10
40.0000
20
0.0000
30
0.0
11
40.0000
21
52.0000
31
0.0
0
ARC
8
CUT
10
20.0000
20
52.0000
30
0.0
40
20.0000
50
0.0000
51
180.0000
0
LINE
8
CUT
10
0.0000
20
52.0000
30
0.0
11
0.0000
21
0.0000
31
0.0
0
CIRCLE
8
CUT
10
20.0000
20
52.0000
30
0.0
40
9.0000
0
ENDSEC
0
EOF
